# xmcd
#
# Track frame offsets:
#	150
#	12058
#	24200
#	38199
#	53571
#	64489
#	77202
#	91025
#	106846
#	119781
#	130470
#	152807
#	162832
#	171301
#	185792
#	199123
#	213601
#	225820
#	239648
#	251309
#	267765
#	281115
#	299365
#	313007
#
# Disc length: 4416 seconds
#
# Revision: 0
# Processed by: cddbd v1.4PL0 Copyright (c) Steve Scherf et al.
# Submitted via: EasyCDDAExtractor 5.0.0.0
#
DISCID=56113e18
DTITLE=Dolly Parton - Both Sides Of Dolly Parton
DYEAR=1900
DGENRE=Country
TTITLE0=Jolene
TTITLE1=Bargain Store
TTITLE2=Coat Of Many Colours
TTITLE3=Applejack
TTITLE4=Shattered Image
TTITLE5=Living On Memories Of You
TTITLE6=My Tennessee Mountain Home
TTITLE7=Heartbraker
TTITLE8=Here You Come Again
TTITLE9=Love Is Like A Butterfly
TTITLE10=Light Of A Clear Blue Morning
TTITLE11=Travelling Man
TTITLE12=Randy
TTITLE13=Lonely Coming Down
TTITLE14=Joshua
TTITLE15=Sweet Music Man
TTITLE16=Higher And Higher
TTITLE17=The Seeker
TTITLE18=The Pain Of Loving You
TTITLE19=Wildflowers
TTITLE20=My Dear Companion
TTITLE21=Those Memories Of You
TTITLE22=Rosewood Casket
TTITLE23=Farther Along
EXTD=
EXTT0=
EXTT1=
EXTT2=
EXTT3=
EXTT4=
EXTT5=
EXTT6=
EXTT7=
EXTT8=
EXTT9=
EXTT10=
EXTT11=
EXTT12=
EXTT13=
EXTT14=
EXTT15=
EXTT16=
EXTT17=
EXTT18=
EXTT19=
EXTT20=
EXTT21=
EXTT22=
EXTT23=
PLAYORDER=
